<svg width="65" height="65" viewBox="0 0 65 65" fill="none" xmlns="http://www.w3.org/2000/svg">
<g id="Capa_1" clip-path="url(#clip0_17_65)">
<g id="SVGRepo_iconCarrier">
<g id="Group">
<g id="Group_2">
<g id="Group_3">
<path id="Vector" d="M40.108 51.4132H9.82144V7.97474H40.0997V11.2243H44.1694V7.08767C44.1721 3.19101 40.9727 0 37.0788 0H12.8478C8.94833 0 5.75732 3.19101 5.75732 7.08767V57.9095C5.75732 61.8118 8.94833 65 12.8478 65H37.0788C40.9727 65 44.1721 61.8118 44.1721 57.9095V51.3378H40.108V51.4132ZM24.9591 61.452C23.1627 61.452 21.7124 59.9988 21.7124 58.2052C21.7124 56.4061 23.1628 54.9556 24.9591 54.9556C26.7582 54.9556 28.2115 56.4088 28.2115 58.2052C28.2115 59.9988 26.7583 61.452 24.9591 61.452Z" fill="#17C1FF"/>
<path id="Vector_2" d="M22.3759 12.334H13.291V17.8737H22.3759V12.334Z" fill="#17C1FF"/>
<path id="Vector_3" d="M22.3759 26.5186H13.291V32.0582H22.3759V26.5186Z" fill="#17C1FF"/>
<path id="Vector_4" d="M22.3759 41.3623H13.291V46.8991H22.3759V41.3623Z" fill="#17C1FF"/>
<path id="Vector_5" d="M54.6207 28.9532C54.2999 27.274 53.65 25.7203 52.7295 24.3619L55.9875 21.1012L52.6598 17.7847L49.4074 21.0398C48.0545 20.1138 46.4926 19.4722 44.8189 19.1486V14.5322H40.1106V19.1486C38.4342 19.4722 36.8861 20.1165 35.5194 21.0398L32.2726 17.7847L28.945 21.1039L32.1974 24.3646C31.2797 25.7231 30.6326 27.2767 30.3118 28.9531H25.7009V33.6588H30.3116C30.6325 35.3296 31.2824 36.8833 32.2 38.2472L28.9448 41.5024L32.2725 44.8161L35.5277 41.5637C36.8889 42.4897 38.4425 43.134 40.1189 43.4604V48.0684H44.8272V43.4577C46.5007 43.1369 48.0517 42.4869 49.4157 41.5665L52.6681 44.8189L55.9958 41.5024L52.7378 38.2472C53.6582 36.8888 54.3054 35.3324 54.629 33.656H59.2425V28.9532H54.6207ZM42.4704 36.4259C39.6392 36.4259 37.3407 34.1386 37.3407 31.3046C37.3407 28.4735 39.6391 26.1723 42.4704 26.1723C45.3044 26.1723 47.5916 28.4707 47.5916 31.3046C47.5916 34.1413 45.2987 36.4259 42.4704 36.4259Z" fill="#17C1FF"/>
</g>
</g>
</g>
</g>
</g>
<defs>
<clipPath id="clip0_17_65">
<rect width="65" height="65" fill="white"/>
</clipPath>
</defs>
</svg>
