<svg width="42" height="42" viewBox="0 0 42 42" fill="none" xmlns="http://www.w3.org/2000/svg">
<g id="ri:double-quotes-l">
<path id="Vector" d="M8.02025 30.3119C6.21775 28.3974 5.25 26.2502 5.25 22.7694C5.25 16.6444 9.54975 11.1547 15.8025 8.44043L17.3653 10.8519C11.529 14.0089 10.388 18.1057 9.933 20.6887C10.8728 20.2022 12.103 20.0324 13.3088 20.1444C16.4657 20.4367 18.9543 23.0284 18.9543 26.2502C18.9543 27.8746 18.3089 29.4326 17.1603 30.5812C16.0116 31.7299 14.4537 32.3752 12.8292 32.3752C11.9309 32.3673 11.0431 32.1809 10.2175 31.8267C9.39188 31.4724 8.64498 30.9575 8.02025 30.3119ZM25.5203 30.3119C23.7178 28.3974 22.75 26.2502 22.75 22.7694C22.75 16.6444 27.0498 11.1547 33.3025 8.44043L34.8652 10.8519C29.029 14.0089 27.888 18.1057 27.433 20.6887C28.3727 20.2022 29.603 20.0324 30.8088 20.1444C33.9657 20.4367 36.4542 23.0284 36.4542 26.2502C36.4542 27.8746 35.8089 29.4326 34.6603 30.5812C33.5116 31.7299 31.9537 32.3752 30.3292 32.3752C29.4309 32.3673 28.5431 32.1809 27.7175 31.8267C26.8919 31.4724 26.145 30.9575 25.5203 30.3119Z" fill="#FFD03A"/>
</g>
</svg>
