<svg width="65" height="65" viewBox="0 0 65 65" fill="none" xmlns="http://www.w3.org/2000/svg">
<g id="Capa_1" clip-path="url(#clip0_17_94)">
<g id="SVGRepo_iconCarrier">
<g id="Group">
<path id="Vector" d="M36.8164 12.9023H20.5664V16.9648H36.8164V12.9023Z" fill="#17C1FF"/>
<path id="Vector_2" d="M42.4023 18.8691H26.1523V22.9316H42.4023V18.8691Z" fill="#17C1FF"/>
<path id="Vector_3" d="M36.8164 24.8359H20.5664V28.8984H36.8164V24.8359Z" fill="#17C1FF"/>
<path id="Vector_4" d="M42.4023 30.8027H26.1523V34.8662H42.4023V30.8027Z" fill="#17C1FF"/>
<path id="Vector_5" d="M36.8164 36.7686H20.5664V40.8311H36.8164V36.7686Z" fill="#17C1FF"/>
<path id="Vector_6" d="M3.04691 48.1165H27.4219V55.1406H18.1544V59.2031H46.8458V55.1406H37.5782V48.1165H61.9532C63.629 48.1165 65.0001 46.7454 65.0001 45.0696V8.84574C65.0001 7.16993 63.629 5.79883 61.9532 5.79883H3.04691C1.3711 5.79883 0 7.16993 0 8.84574V45.0697C0 46.7454 1.3711 48.1165 3.04691 48.1165ZM4.0625 9.86133H60.9375V44.054H4.0625V9.86133Z" fill="#17C1FF"/>
</g>
</g>
</g>
<defs>
<clipPath id="clip0_17_94">
<rect width="65" height="65" fill="white"/>
</clipPath>
</defs>
</svg>
